<?xml version="1.0" encoding="UTF-8"?>
<svg id="Layer_1" data-name="Layer 1" xmlns="http://www.w3.org/2000/svg" viewBox="0 0 215.36 261.51">
  <defs>
    <style>
      .cls-1 {
        fill: #2da1db;
      }

      .cls-1, .cls-2, .cls-3 {
        stroke-width: 0px;
      }

      .cls-2 {
        fill: #201b4f;
      }

      .cls-3 {
        fill: #fff;
      }
    </style>
  </defs>
  <path class="cls-2" d="M215.36,130.75c0,72.23-48.23,130.76-107.7,130.76S0,202.98,0,130.75,48.2,0,107.66,0s107.7,58.53,107.7,130.75"/>
  <path class="cls-3" d="M210.38,130.75c0,68.89-45.97,124.72-102.72,124.72S4.96,199.64,4.96,130.75,50.94,6.03,107.66,6.03s102.72,55.86,102.72,124.72"/>
  <path class="cls-2" d="M186.98,131.31c0,56.6-35.44,102.46-79.16,102.46S28.67,187.92,28.67,131.31,64.12,28.88,107.82,28.88s79.16,45.88,79.16,102.44"/>
  <path class="cls-2" d="M31.22,59.61l3.83,1.89-.21.34c-1.01-.34-1.99-.34-2.91-.01-.92.33-1.56.84-1.95,1.58-.28.55-.37,1.08-.24,1.57.12.49.38.83.77,1.05.25.11.5.18.77.16.33-.03.73-.14,1.18-.37.33-.16.96-.57,1.93-1.28,1.36-.98,2.44-1.55,3.26-1.69.84-.16,1.63-.03,2.36.37.95.49,1.57,1.29,1.87,2.37.28,1.1.13,2.21-.49,3.33-.17.36-.39.67-.63.94-.24.27-.58.6-1.05.97-.23.2-.43.39-.51.57-.08.14-.1.31-.08.54.03.22.13.42.3.64l-.16.32-4.28-2.24.16-.3c1.32.39,2.49.39,3.5.04.99-.35,1.71-.94,2.13-1.73.34-.63.44-1.2.29-1.75-.14-.55-.44-.93-.89-1.18-.27-.14-.56-.2-.9-.19-.32.01-.67.08-1.05.25-.37.18-.92.53-1.68,1.08-1.05.74-1.88,1.26-2.46,1.5-.6.28-1.18.41-1.76.42-.56,0-1.11-.12-1.64-.42-.89-.46-1.49-1.19-1.77-2.18-.28-1-.15-1.99.38-2.98.18-.37.42-.71.7-.98.19-.23.49-.49.88-.77.38-.26.6-.5.68-.65.07-.14.11-.26.05-.4-.04-.14-.21-.32-.52-.57l.14-.25Z"/>
  <path class="cls-2" d="M36.61,52.99l4.3,2.92.13-.21c.46-.66.59-1.29.36-1.88-.21-.58-.71-1.2-1.47-1.83l.2-.3,5.56,3.76-.2.29c-.64-.34-1.22-.55-1.75-.62-.53-.05-.94,0-1.25.19-.31.16-.63.5-.98.98l2.99,2.03c.56.4.95.62,1.1.65.18.05.33.03.51-.06.17-.09.37-.27.58-.56l.44-.62c.66-1,.98-1.93.92-2.84-.02-.9-.45-1.78-1.21-2.68l.2-.29,3.03,2.75-6.23,9.07-.29-.19.24-.35c.21-.31.32-.61.34-.84.01-.19-.04-.39-.15-.58-.11-.14-.4-.38-.94-.75l-6.97-4.69c-.46-.35-.77-.53-.9-.56-.21-.08-.42-.08-.61,0-.27.08-.55.32-.79.65l-.24.35-.29-.2,6.06-8.78,3.12,2.12-.2.29c-.87-.36-1.56-.51-2.07-.47-.53.03-1.04.26-1.53.65-.28.23-.72.73-1.25,1.52l-.74,1.09Z"/>
  <path class="cls-2" d="M45.46,41.49l3.88,3.46.18-.21c.53-.59.73-1.2.6-1.81-.13-.61-.53-1.27-1.2-2l.25-.27,4.97,4.44-.23.27c-.6-.42-1.15-.71-1.66-.84-.49-.13-.92-.13-1.27,0-.33.14-.7.42-1.11.89l2.7,2.38c.51.47.85.73,1,.78.17.07.33.07.52.01.18-.05.4-.21.65-.47l.51-.57c.8-.89,1.23-1.78,1.29-2.68.07-.9-.2-1.84-.84-2.82l.22-.27,2.66,3.13-7.39,8.18-.26-.25.28-.3c.25-.27.39-.53.45-.8.04-.17.01-.37-.09-.59-.07-.14-.32-.44-.81-.86l-6.28-5.57c-.43-.38-.69-.62-.82-.68-.21-.09-.4-.13-.61-.08-.29.06-.57.24-.86.57l-.27.31-.28-.24,7.18-7.92,2.81,2.5-.23.27c-.83-.48-1.49-.72-2.01-.75-.51-.01-1.06.14-1.59.45-.33.17-.8.63-1.45,1.37l-.89.96Z"/>
  <path class="cls-2" d="M60.86,32.6l7.03,1.57c1,.21,1.78.28,2.29.21.4-.05.74-.18,1.02-.42l.23.27-5.2,4.14-.22-.29c.3-.26.47-.49.53-.64.02-.16.01-.27-.08-.38-.17-.22-.71-.41-1.6-.61l-4.61-1.04-.11.6,2.19,2.69c.41.51.7.81.86.9.16.08.35.1.6.06.25-.06.54-.2.91-.51l.21.26-5.02,4.02-.23-.27.35-.27c.29-.23.47-.46.58-.71.06-.17.06-.37,0-.59-.04-.16-.26-.49-.67-.98l-5.28-6.51c-.4-.52-.69-.79-.85-.86-.15-.11-.34-.12-.6-.1-.23.03-.49.17-.78.4l-.33.27-.21-.27,4.96-3.96.23.27c-.33.27-.57.53-.66.77-.07.17-.07.37-.03.58.04.19.26.51.66,1.01l2.51,3.07,1.28-5.92c.2-.82.18-1.35-.02-1.61-.16-.17-.36-.24-.66-.17-.16.02-.46.21-.88.53l-.23-.27,3.9-3.12.22.27c-.34.31-.56.58-.67.84-.12.27-.3.97-.56,2.12l-1.03,4.65Z"/>
  <path class="cls-2" d="M79.96,21.29l6.37,3.39c.89.47,1.61.73,2.14.81.39.07.75.03,1.06-.12l.16.31-6.11,2.6-.14-.32c.35-.19.6-.36.66-.48.08-.15.09-.27.03-.41-.1-.24-.55-.57-1.38-1l-4.15-2.24-.27.55,1.37,3.18c.25.6.45.97.59,1.09.12.12.32.19.55.23.24.01.58-.06,1.03-.26l.14.32-5.95,2.54-.15-.32.39-.16c.36-.15.62-.33.77-.53.08-.14.15-.35.15-.56,0-.18-.11-.54-.36-1.13l-3.33-7.7c-.25-.57-.45-.92-.58-1.06-.12-.12-.29-.2-.56-.23-.23-.03-.51.02-.85.16l-.37.17-.14-.33,5.85-2.47.14.32c-.4.15-.69.35-.83.55-.13.14-.18.33-.19.56,0,.17.11.56.38,1.15l1.57,3.62,2.85-5.34c.41-.76.54-1.27.42-1.58-.1-.21-.32-.33-.59-.36-.17,0-.5.08-1.01.3l-.15-.32,4.59-1.96.15.33c-.42.19-.7.41-.89.63-.17.21-.54.83-1.08,1.87l-2.29,4.2Z"/>
  <path class="cls-2" d="M92.74,12.28l7.59,6.68-.95-5.37c-.12-.76-.32-1.24-.58-1.45-.37-.33-.9-.4-1.6-.27l-.05-.33,4.16-.73.06.35c-.52.16-.86.3-1.02.45-.16.13-.28.32-.34.58-.04.27-.04.7.07,1.28l1.84,10.43-.33.05-10.35-8.96,1.39,7.95c.12.73.37,1.16.75,1.37.37.19.78.27,1.2.19l.29-.06.07.34-4.48.79-.06-.34c.7-.13,1.16-.36,1.38-.69.23-.33.29-.81.18-1.48l-1.56-8.83-.32-.3c-.34-.28-.61-.45-.82-.52-.22-.06-.54-.08-.92-.03l-.06-.33,4.46-.78Z"/>
  <path class="cls-2" d="M112.92,10.77c2.04.06,3.65.76,4.84,2.09,1.2,1.34,1.73,2.96,1.6,4.82-.12,1.6-.68,2.99-1.71,4.14-1.36,1.55-3.19,2.23-5.49,2.08-2.29-.15-4.03-1.04-5.18-2.66-.9-1.28-1.32-2.78-1.18-4.45.13-1.87.87-3.4,2.23-4.58,1.37-1.14,3.01-1.65,4.88-1.45M112.99,11.38c-1.18-.08-2.1.45-2.78,1.61-.56.92-.91,2.31-1.03,4.12-.15,2.17.14,3.78.83,4.86.49.77,1.2,1.18,2.18,1.24.63.05,1.19-.06,1.64-.34.58-.37,1.06-.98,1.44-1.83.35-.86.59-1.99.68-3.39.09-1.69.02-2.95-.24-3.8-.23-.85-.6-1.46-1.08-1.83-.45-.38-1.01-.58-1.64-.63"/>
  <path class="cls-2" d="M142.7,18.43l-.11.33c-.24-.07-.44-.07-.65-.03-.18.05-.37.17-.59.34-.04.05-.41.45-1.04,1.17l-7.35,8.53-.32-.12-.22-8.76-6.07,6.53-.33-.13-.45-11.15c-.04-1.13-.11-1.83-.19-2.09-.11-.27-.33-.48-.7-.64l.12-.35,5.21,1.86-.1.32c-.44-.12-.71-.17-.92-.09-.18.07-.3.17-.35.34-.08.22-.12.74-.08,1.56l.27,6.65,3.53-3.86-.04-1.45c-.03-.79-.07-1.34-.12-1.6-.07-.3-.19-.52-.34-.7-.16-.17-.42-.31-.8-.46l.12-.31,5.84,2.07-.11.33c-.41-.15-.71-.22-.91-.22-.14,0-.26.03-.37.1-.1.06-.17.17-.22.29-.08.14-.08.61-.08,1.4l.18,6.44,3.81-4.44c.39-.44.65-.77.77-.95.12-.17.21-.34.29-.51.08-.23.04-.45-.06-.67-.11-.17-.4-.37-.87-.55l.11-.31,3.13,1.1Z"/>
  <path class="cls-2" d="M151.75,34.12l-2.88,3.48-9.49-6.21.18-.29.37.23c.32.2.61.31.87.32.18.02.37-.04.56-.17.15-.09.39-.4.75-.93l4.63-6.99c.37-.53.55-.9.6-1.07.02-.17,0-.37-.13-.59-.11-.21-.32-.42-.61-.62l-.37-.23.2-.28,5.71,3.71-.2.28-.46-.29c-.32-.22-.6-.32-.86-.34-.2,0-.37.05-.58.18-.14.08-.38.4-.73.92l-4.5,6.78c-.35.52-.56.89-.6,1.09-.03.17.03.36.15.57.11.12.41.35.92.68l.88.58c.58.38,1.12.57,1.62.64.52.03,1.05-.07,1.61-.3.56-.26,1.25-.72,2.04-1.39l.32.21Z"/>
  <path class="cls-2" d="M162.64,33.62l-3.55,3.79.18.16c.6.55,1.19.77,1.82.64.61-.12,1.31-.51,2.04-1.16l.26.25-4.58,4.85-.27-.25c.44-.57.72-1.11.88-1.62.14-.5.15-.91.03-1.24-.12-.35-.41-.72-.85-1.12l-2.47,2.6c-.48.5-.75.84-.81,1-.08.15-.08.33-.04.51.06.19.22.39.47.65l.57.52c.88.82,1.77,1.25,2.67,1.36.91.06,1.86-.18,2.87-.79l.25.25-3.19,2.54-8.08-7.5.23-.25.32.29c.27.24.53.41.79.47.17.04.37.02.57-.09.16-.05.46-.31.9-.78l5.76-6.1c.38-.42.63-.7.7-.81.1-.19.13-.4.08-.6-.06-.29-.21-.58-.54-.85l-.3-.3.23-.26,7.83,7.28-2.59,2.73-.27-.24c.51-.79.77-1.46.81-1.96.03-.52-.11-1.05-.41-1.6-.18-.32-.64-.8-1.33-1.46l-.99-.91Z"/>
  <path class="cls-2" d="M160.73,48.36l.27-.21.25.33c.23.29.46.48.67.55.22.09.43.11.64.05.13-.03.48-.24,1-.65l6.65-5.14c.51-.39.79-.68.89-.83.1-.16.11-.35.08-.6-.04-.24-.16-.5-.39-.77l-.26-.33.27-.22,3.54,4.5c.92,1.2,1.53,2.26,1.77,3.25.31,1.2.23,2.35-.23,3.44-.45,1.09-1.18,2.04-2.21,2.84-.7.53-1.45.93-2.22,1.17-.77.23-1.5.32-2.16.27-.69-.07-1.32-.23-1.92-.52-.62-.28-1.26-.73-1.92-1.3-.3-.27-.7-.7-1.2-1.37l-3.52-4.47ZM173.26,44.81l-7.87,6.11c-.42.31-.67.53-.74.65-.07.12-.08.23-.04.38.02.19.12.41.34.66.64.8,1.42,1.22,2.32,1.22,1.22,0,2.66-.62,4.25-1.87,1.29-1,2.18-2.01,2.64-3.02.36-.77.42-1.51.25-2.18-.12-.47-.49-1.11-1.15-1.94"/>
  <path class="cls-2" d="M187.69,65l-3.94,2.21-.18-.31c.85-.98,1.37-1.97,1.51-3.02.17-1.04-.02-1.99-.53-2.86-.47-.81-1.09-1.37-1.87-1.66-.77-.28-1.66-.31-2.63-.06-.96.25-1.89.61-2.78,1.1-1.08.6-1.95,1.23-2.61,1.96-.66.69-1.02,1.43-1.08,2.2-.07.77.13,1.54.55,2.3.17.27.35.53.56.77.22.25.47.5.75.73l2.31-1.3c.44-.26.7-.44.8-.57.09-.14.14-.31.14-.57s-.09-.5-.23-.78l-.15-.29.3-.16,3.05,5.37-.3.18c-.26-.4-.47-.65-.65-.76-.19-.12-.38-.17-.63-.14-.14.01-.4.12-.81.35l-2.32,1.31c-.72-.53-1.38-1.13-1.96-1.81-.61-.68-1.13-1.43-1.6-2.25-.61-1.04-.96-2-1.06-2.86-.11-.85-.07-1.68.08-2.47.16-.79.46-1.5.88-2.13.54-.8,1.27-1.46,2.21-2,1.69-.94,3.43-1.14,5.26-.61,1.82.5,3.23,1.66,4.23,3.44.32.55.55,1.07.72,1.56.1.26.18.7.29,1.37.1.65.17,1.02.23,1.13.07.14.21.27.4.33.18.06.46.06.85,0l.18.29Z"/>
  <path class="cls-2" d="M190.66,74.24l-4.85,1.91.11.24c.3.75.75,1.2,1.37,1.35.6.14,1.41.06,2.37-.19l.12.32-6.22,2.47-.13-.32c.63-.35,1.13-.72,1.49-1.1.34-.4.51-.77.55-1.13.03-.36-.08-.81-.3-1.36l-3.35,1.33c-.65.26-1.03.44-1.17.55-.1.12-.18.27-.22.45-.03.2.02.46.14.8l.29.69c.46,1.11,1.08,1.87,1.85,2.35.8.45,1.75.61,2.94.48l.13.33-3.99.98-4.14-10.18.32-.12.15.37c.16.35.31.62.52.77.14.12.34.18.57.18.16,0,.55-.1,1.14-.33l7.8-3.14c.55-.22.87-.37.98-.44.18-.14.29-.31.35-.51.06-.28.03-.62-.13-1.01l-.15-.39.32-.12,3.98,9.87-3.49,1.39-.13-.31c.8-.51,1.3-1,1.56-1.45.25-.45.33-.99.28-1.63-.02-.36-.21-.99-.58-1.89l-.48-1.19Z"/>
  <path class="cls-2" d="M23.19,138.15l-7.88,7.76,5.99-.66c.82-.08,1.38-.26,1.66-.54.35-.36.49-.92.37-1.69l.4-.04.49,4.56-.37.04c-.15-.58-.29-.95-.43-1.15-.14-.19-.35-.32-.64-.41-.29-.09-.76-.09-1.4,0l-11.59,1.25-.05-.34,10.57-10.6-8.86.96c-.79.08-1.32.32-1.56.72-.24.4-.34.82-.29,1.3l.04.33-.36.03-.55-4.9.39-.04c.07.75.28,1.28.62,1.55.36.26.9.35,1.63.27l9.83-1.07.33-.32c.35-.33.57-.63.64-.86.1-.24.12-.57.1-.99l.37-.04.54,4.88Z"/>
  <path class="cls-2" d="M26.03,155.29c.54,2.16.29,4.04-.77,5.7-1.05,1.62-2.61,2.66-4.65,3.1-1.72.38-3.37.2-4.9-.54-2.05-.96-3.34-2.66-3.85-5.1-.53-2.45-.1-4.52,1.28-6.2,1.09-1.34,2.56-2.19,4.37-2.58,2.03-.43,3.87-.1,5.52.99,1.66,1.08,2.66,2.63,3.01,4.65M25.43,155.55c-.28-1.24-1.11-2.05-2.54-2.43-1.15-.31-2.71-.24-4.7.17-2.34.5-3.97,1.27-4.92,2.32-.66.74-.89,1.61-.66,2.64.14.69.46,1.23.87,1.61.56.51,1.35.82,2.37.94,1.02.12,2.28,0,3.82-.3,1.8-.37,3.13-.84,3.94-1.37.84-.51,1.37-1.08,1.64-1.68.26-.59.32-1.22.18-1.91"/>
  <path class="cls-2" d="M21.88,170.24l-3.71,1.21c-.73.24-1.17.43-1.32.59-.16.13-.26.32-.3.6-.03.25.04.69.27,1.28l-.4.12-2.2-6.76.35-.12c.2.59.39,1.01.59,1.17.17.19.38.3.58.32.22.03.67-.07,1.4-.3l8.65-2.8c.71-.25,1.16-.42,1.31-.57.16-.16.26-.37.29-.61.05-.28-.03-.7-.25-1.29l.39-.12,2,6.14c.55,1.59.81,2.81.83,3.62.02.8-.18,1.54-.63,2.2-.46.66-1.06,1.12-1.87,1.39-.99.33-1.92.23-2.8-.27-.54-.32-1.05-.86-1.53-1.58l-3.46,4.64c-.44.59-.71.99-.79,1.23-.11.35-.13.67-.04,1.03l-.34.11-1.38-4.15,4.65-6.22-.29-.88ZM28.41,168.14l-5.81,1.89.18.55c.3.91.59,1.56.9,1.95.32.4.73.66,1.25.76.53.12,1.13.09,1.84-.16,1.03-.33,1.7-.8,2.03-1.43.32-.63.32-1.46-.03-2.51l-.36-1.04Z"/>
  <path class="cls-2" d="M37.43,188.61l-3.46,1.55-.14-.34c.71-.57,1.18-1.02,1.42-1.43.23-.4.38-.85.39-1.39,0-.28-.12-.71-.42-1.31l-.4-.94-9.88,4.38c-.66.29-1.02.5-1.17.66-.14.13-.21.34-.24.6-.02.27.04.59.21.94l.19.42-.35.17-3.01-6.64.36-.16.2.42c.15.35.37.63.59.79.17.13.36.2.63.19.17,0,.58-.15,1.23-.42l9.87-4.39-.41-.92c-.38-.85-.85-1.39-1.39-1.62-.75-.32-1.63-.33-2.64-.06l-.16-.36,3.45-1.54,5.16,11.4Z"/>
  <path class="cls-2" d="M34.1,197.36l-3.74,2.22c-.6.36-.97.63-1.09.78-.1.16-.17.38-.17.64.03.26.11.56.31.88l.25.4-.34.2-3.75-6.24.33-.19.23.4c.21.35.45.59.7.74.17.08.38.13.63.08.18-.02.58-.21,1.18-.57l7.9-4.69c.63-.36.99-.62,1.1-.79.11-.16.16-.35.16-.62s-.09-.55-.3-.89l-.25-.39.33-.2,3.78,6.23-.35.19-.23-.39c-.21-.34-.45-.59-.69-.72-.18-.11-.4-.14-.64-.11-.17.03-.56.22-1.17.56l-3.42,2.03,2.54,4.2,3.43-2.01c.6-.37.97-.63,1.08-.79.12-.14.18-.37.18-.63-.03-.25-.12-.57-.32-.9l-.25-.39.36-.19,3.75,6.22-.33.2-.25-.38c-.2-.36-.45-.59-.7-.71-.16-.12-.39-.17-.63-.13-.16.02-.57.22-1.18.58l-7.91,4.68c-.59.37-.98.63-1.09.79-.11.14-.18.35-.16.61,0,.27.11.57.32.9l.22.4-.34.19-3.75-6.22.34-.2.21.4c.2.35.45.6.7.72.17.1.39.14.64.1.18,0,.57-.21,1.16-.56l3.73-2.19-2.53-4.22Z"/>
  <path class="cls-2" d="M58.54,216.86l-3.33,3.25-.28-.29c.7-.94,1.07-1.94,1.04-2.99-.01-1.05-.33-1.91-.96-2.56-.47-.5-1-.79-1.54-.81-.57-.05-1.02.1-1.38.44-.22.2-.36.45-.44.71-.1.37-.11.81-.04,1.34.05.4.29,1.22.66,2.45.54,1.72.75,3.06.61,3.96-.12.89-.53,1.65-1.2,2.27-.85.79-1.9,1.16-3.13,1.06-1.24-.07-2.35-.63-3.3-1.63-.32-.32-.58-.65-.77-.99-.19-.35-.43-.81-.64-1.42-.14-.34-.27-.57-.42-.73-.13-.11-.3-.22-.53-.27-.25-.04-.51-.01-.8.1l-.26-.29,3.85-3.6.25.28c-.86,1.24-1.28,2.41-1.28,3.56.04,1.17.38,2.12,1.07,2.82.53.56,1.11.87,1.71.91.64.04,1.15-.12,1.56-.51.22-.23.41-.5.51-.83.09-.36.14-.73.09-1.19-.04-.44-.22-1.15-.51-2.13-.44-1.33-.68-2.36-.73-3.06-.08-.71,0-1.35.19-1.93.2-.59.54-1.12,1.02-1.56.81-.75,1.78-1.11,2.9-1.04,1.13.05,2.13.53,2.98,1.43.32.32.58.68.79,1.08.17.28.32.66.48,1.14.16.5.3.8.42.94.11.12.25.2.41.2.15,0,.41-.12.77-.34l.22.22Z"/>
  <path class="cls-2" d="M65.33,222.86c1.81,1.3,2.83,2.92,3.06,4.87.25,1.93-.27,3.71-1.57,5.32-1.1,1.38-2.49,2.28-4.14,2.69-2.2.55-4.27.06-6.23-1.5-1.97-1.55-2.97-3.4-3.01-5.58,0-1.72.57-3.31,1.71-4.75,1.29-1.59,2.92-2.53,4.9-2.74,1.96-.21,3.73.35,5.29,1.69M65.03,223.44c-1-.78-2.18-.87-3.52-.27-1.09.51-2.25,1.55-3.51,3.11-1.49,1.86-2.25,3.47-2.3,4.89-.04.99.36,1.8,1.2,2.45.54.43,1.11.66,1.7.7.75.01,1.56-.24,2.42-.78.87-.56,1.78-1.42,2.75-2.64,1.15-1.45,1.88-2.62,2.16-3.56.32-.92.36-1.71.2-2.32-.21-.62-.56-1.13-1.1-1.58"/>
  <path class="cls-2" d="M71.19,227.69l6.4,3.32-.17.34-.33-.17c-.49-.24-.84-.37-1.07-.35-.22,0-.44.09-.6.21-.16.14-.44.54-.82,1.26l-3.17,6.02c-.59,1.12-.89,1.88-.91,2.33,0,.44.12.87.37,1.29.25.45.67.84,1.26,1.12.66.36,1.33.5,1.95.45.64-.06,1.21-.29,1.71-.68.51-.41,1.13-1.26,1.82-2.56l2.66-5.02c.29-.56.43-.97.44-1.28,0-.3-.05-.54-.19-.72-.19-.28-.56-.56-1.06-.81l.19-.34,4.29,2.24-.16.34-.27-.13c-.33-.19-.66-.27-.97-.27-.3.03-.59.15-.83.37-.19.16-.42.49-.67.99l-2.47,4.67c-.76,1.46-1.4,2.45-1.94,2.98-.53.53-1.3.9-2.35,1.05-1.01.16-2.18-.11-3.47-.79-1.06-.56-1.81-1.12-2.27-1.73-.58-.79-.88-1.58-.9-2.35-.02-.79.25-1.69.8-2.72l3.19-6.03c.36-.7.56-1.14.58-1.37,0-.21-.06-.43-.18-.64-.15-.2-.47-.43-1-.69l.17-.34Z"/>
  <path class="cls-2" d="M96.04,237.78l-1.05,3.61-.37-.1c.04-.91-.02-1.56-.18-2.01-.14-.42-.41-.82-.79-1.17-.23-.19-.66-.38-1.27-.57l-1-.29-3.07,10.28c-.2.69-.3,1.12-.27,1.32.04.19.13.38.32.57.17.19.46.34.84.45l.44.13-.11.38-7.02-2.06.09-.38.44.14c.39.11.73.13,1.01.06.21-.03.39-.16.56-.34.11-.14.28-.55.46-1.21l3.06-10.28-.96-.29c-.91-.27-1.63-.28-2.15,0-.71.35-1.31,1-1.76,1.94l-.37-.11,1.06-3.61,12.06,3.53Z"/>
  <path class="cls-2" d="M100.82,245.51l-.29,4.3c-.08.71-.06,1.15.02,1.33.07.19.21.34.42.5.23.16.53.23.92.26l.46.04-.02.37-7.3-.49.03-.38.45.04c.42.01.75-.03,1.01-.16.18-.1.33-.25.45-.47.09-.16.15-.58.18-1.27l.65-9.12c.03-.72.03-1.17-.03-1.34-.06-.18-.2-.34-.42-.5-.22-.14-.53-.23-.92-.25l-.46-.04.03-.37,7.32.48-.04.38-.44-.03c-.4-.01-.75.02-1.03.14-.18.09-.32.25-.44.47-.09.16-.15.58-.2,1.29l-.28,3.92,4.95.33.26-3.93c.06-.71.04-1.15,0-1.34-.07-.17-.21-.35-.44-.5-.22-.14-.52-.23-.93-.26l-.44-.04.02-.37,7.29.5-.02.37-.45-.03c-.41-.04-.74.03-1,.15-.18.08-.34.23-.46.45-.1.16-.17.59-.2,1.3l-.62,9.09c-.06.73-.06,1.17.01,1.35.07.19.2.36.43.51.2.14.52.22.93.25l.44.04v.38s-7.31-.5-7.31-.5l.03-.38.44.02c.42.03.75-.01,1.01-.14.19-.1.33-.24.45-.47.08-.16.16-.58.2-1.28l.3-4.3-4.94-.32Z"/>
  <path class="cls-2" d="M130.22,235.07l6.5-3.12.17.34-.33.14c-.49.25-.8.46-.95.65-.1.18-.18.38-.17.61.03.21.19.68.54,1.38l3,6.12c.54,1.12.99,1.83,1.35,2.11.34.28.75.44,1.27.5.52.04,1.06-.07,1.66-.36.67-.33,1.16-.76,1.51-1.29.33-.54.49-1.13.47-1.8-.04-.64-.36-1.62-1.02-2.96l-2.49-5.09c-.27-.57-.53-.94-.76-1.13-.23-.16-.46-.27-.69-.27-.35,0-.77.11-1.3.36l-.16-.35,4.37-2.09.16.33-.27.14c-.35.17-.6.39-.76.63-.18.25-.24.55-.21.89.01.23.13.62.39,1.11l2.33,4.74c.71,1.48,1.14,2.59,1.26,3.32.12.74-.07,1.58-.54,2.5-.49.9-1.4,1.67-2.71,2.31-1.08.52-1.99.78-2.73.78-1.01,0-1.83-.21-2.47-.68-.61-.45-1.19-1.2-1.7-2.23l-2.99-6.12c-.36-.72-.61-1.16-.78-1.27-.16-.14-.37-.22-.62-.22-.27-.02-.64.11-1.18.37l-.16-.34Z"/>
  <path class="cls-2" d="M146.78,226.12l10.72,2.88-3.59-4.81c-.5-.68-.92-1.06-1.31-1.15-.48-.14-1.06.06-1.67.51l-.22-.29,3.71-2.71.23.29c-.44.41-.7.72-.76.93-.11.22-.12.47-.05.75.07.29.3.7.69,1.23l6.92,9.31-.29.21-14.54-3.74,5.29,7.1c.47.65.95.98,1.4.99.48.02.9-.14,1.3-.41l.25-.19.23.31-4,2.92-.23-.3c.61-.46.96-.9,1-1.34.06-.42-.12-.93-.56-1.52l-5.85-7.89-.48-.12c-.46-.14-.82-.16-1.06-.14-.25.04-.56.19-.9.43l-.23-.32,4-2.92Z"/>
  <path class="cls-2" d="M169.06,225.06l.25.27-5.3,5.02-.25-.27.34-.32c.3-.28.47-.55.57-.84.04-.18.03-.41-.06-.63-.06-.17-.32-.52-.82-1.02l-6.35-6.61c-.48-.51-.85-.81-1-.89-.2-.09-.43-.09-.66-.03-.27.06-.54.22-.83.49l-.32.33-.27-.29,5.29-5,.27.27-.34.32c-.3.27-.47.54-.56.82-.06.19-.06.39.04.64.07.19.32.52.83,1.04l6.34,6.6c.51.51.84.81,1.03.88.18.08.4.08.67.03.25-.06.52-.24.8-.49l.34-.33Z"/>
  <path class="cls-2" d="M169.38,204.07l.3.23c-.27.45-.37.96-.27,1.56.09.43.42,1.29,1.05,2.53l5.12,10.48-.21.25-11.64-3.42c-1.4-.41-2.25-.63-2.56-.63-.29.02-.64.19-1.05.56l-.29-.22,4.31-5.12.3.23-.14.19c-.41.44-.61.81-.64,1.08,0,.17.06.33.21.45.09.1.23.15.39.22.16.07.62.22,1.39.43l7.28,2.17-2.99-6.05c-.37-.72-.63-1.21-.77-1.43-.15-.23-.3-.4-.44-.5-.15-.13-.32-.2-.52-.23-.18-.01-.4.04-.57.15-.3.15-.59.42-.92.79l-.29-.24,2.96-3.51Z"/>
  <path class="cls-2" d="M172.81,200.08l4.8,3.03.15-.23c.48-.76.6-1.44.35-2.06-.29-.64-.82-1.3-1.68-1.97l.2-.33,6.2,3.9-.22.34c-.7-.37-1.35-.56-1.92-.61-.56-.05-1.04.04-1.36.22-.34.21-.69.59-1.04,1.14l3.33,2.1c.67.4,1.06.65,1.24.67.19.04.37.02.55-.07.2-.1.39-.31.62-.64l.44-.7c.7-1.1,1.01-2.13.93-3.1-.1-1-.56-1.96-1.42-2.92l.22-.32,3.4,2.89-6.51,10.12-.32-.2.25-.36c.22-.36.35-.66.35-.96.03-.19-.04-.39-.2-.61-.11-.14-.44-.4-1.03-.78l-7.77-4.91c-.54-.35-.88-.54-1.02-.59-.25-.06-.47-.05-.68.03-.3.13-.58.38-.82.75l-.24.39-.34-.2,6.31-9.82,3.49,2.2-.2.33c-.96-.36-1.71-.51-2.3-.45-.56.07-1.12.32-1.64.77-.32.27-.76.83-1.32,1.72l-.79,1.22Z"/>
  <path class="cls-2" d="M185.6,191.61l3.53,1.71c.68.33,1.12.49,1.35.49.21,0,.44-.08.63-.23.2-.16.44-.51.73-1.1l.34.17-3.12,6.39-.36-.16c.3-.58.43-1,.43-1.25-.01-.26-.1-.48-.23-.63-.15-.18-.53-.44-1.21-.76l-8.18-3.94c-.68-.3-1.14-.49-1.34-.49-.22,0-.42.08-.65.24-.21.15-.45.52-.72,1.09l-.34-.17,2.84-5.81c.75-1.5,1.39-2.57,1.95-3.18.57-.57,1.23-.97,2.01-1.14.78-.17,1.55-.07,2.32.3.92.45,1.54,1.14,1.82,2.1.17.62.17,1.35,0,2.2l5.71-.94c.77-.14,1.23-.25,1.46-.34.31-.15.56-.4.75-.74l.34.18-1.93,3.93-7.71,1.25-.4.82ZM179.41,188.62l5.52,2.68.25-.53c.44-.84.66-1.53.71-2.01.04-.52-.09-.99-.36-1.43-.28-.44-.78-.82-1.44-1.14-.96-.47-1.78-.58-2.45-.36-.68.23-1.27.84-1.75,1.83l-.48.97Z"/>
  <path class="cls-2" d="M185.8,170.78l4.42,1.5-.14.4c-1.17-.23-2.23-.09-3.17.4-.93.49-1.56,1.15-1.87,1.99-.25.66-.28,1.24-.06,1.75.2.5.56.85,1,1.01.3.11.6.13.87.08.37-.07.78-.25,1.23-.57.32-.21.95-.77,1.91-1.67,1.32-1.24,2.44-2.01,3.29-2.3.87-.27,1.73-.25,2.6.07,1.1.39,1.88,1.16,2.34,2.3.49,1.14.49,2.38,0,3.67-.16.41-.34.78-.56,1.12-.22.32-.56.73-.99,1.21-.23.25-.39.48-.46.67-.07.16-.07.37,0,.61.06.24.2.45.42.66l-.13.35-4.97-1.82.14-.36c1.49.23,2.78.08,3.8-.46,1.03-.52,1.71-1.25,2.05-2.2.27-.7.3-1.36.07-1.93-.23-.56-.63-.94-1.14-1.15-.33-.12-.65-.13-.98-.07-.37.05-.73.2-1.12.44-.38.25-.95.7-1.68,1.4-1.01.98-1.83,1.63-2.45,2-.61.38-1.23.59-1.83.7-.61.09-1.23.04-1.84-.19-1.05-.39-1.8-1.11-2.27-2.14-.42-1.03-.46-2.13-.02-3.29.15-.42.37-.8.63-1.17.17-.27.46-.6.84-.94.36-.36.58-.64.64-.79.06-.18.06-.33-.02-.46-.05-.13-.27-.3-.63-.53l.1-.29Z"/>
  <path class="cls-2" d="M201.8,165.99l.36.13-2.05,6.96-.38-.09.16-.46c.09-.38.12-.7.04-.98-.04-.21-.16-.4-.35-.55-.14-.12-.54-.27-1.22-.47l-8.85-2.55c-.69-.22-1.14-.31-1.34-.27-.17,0-.36.12-.56.29-.19.18-.35.46-.44.84l-.15.44-.36-.12,2.04-6.96.37.1-.12.46c-.12.38-.13.72-.07.99.04.19.14.38.35.53.13.13.54.28,1.21.47l8.85,2.56c.68.22,1.12.3,1.31.27.2-.02.42-.13.59-.31.2-.18.34-.46.45-.83l.14-.45Z"/>
  <path class="cls-2" d="M191.62,149.29l3.71.79-.09.34c-.89.04-1.56.13-1.99.34-.42.17-.79.47-1.11.88-.17.22-.35.64-.47,1.29l-.21,1,10.57,2.25c.7.15,1.15.19,1.34.16.2-.03.39-.14.56-.35.19-.18.32-.49.38-.86l.11-.47.37.09-1.52,7.12-.37-.08.1-.45c.08-.38.08-.71,0-.99-.06-.2-.19-.38-.42-.52-.15-.1-.55-.23-1.25-.38l-10.56-2.23-.2.97c-.22.93-.16,1.62.13,2.13.43.68,1.12,1.22,2.11,1.58l-.09.38-3.7-.79,2.62-12.2Z"/>
  <path class="cls-2" d="M193.46,134.29l.38.06c0,.46.11.83.27,1.09.25.37.97,1,2.17,1.87l4.67,3.59,3.38.39c.71.07,1.16.1,1.35.04s.37-.19.51-.4c.19-.19.27-.48.32-.85l.08-.78.38.04-.91,7.75-.38-.05.09-.73c.04-.4,0-.73-.1-.99-.08-.19-.24-.35-.45-.47-.16-.1-.59-.18-1.29-.27l-2.79-.31-6.34,2.54c-1.25.5-2.02.89-2.24,1.12-.23.25-.39.59-.44,1.02l-.4-.04.79-6.61.38.05-.03.29c-.06.4-.02.7.07.86.11.19.22.27.35.29.22.03.89-.17,1.94-.59l4.9-1.96-3.89-2.98c-.96-.73-1.61-1.12-1.94-1.15-.18-.03-.34.05-.49.19-.21.22-.34.63-.46,1.26l-.38-.05.49-4.22Z"/>
  <path class="cls-3" d="M183.3,131.31c0,53.96-33.78,97.75-75.48,97.75s-75.49-43.78-75.49-97.75S66.15,33.6,107.82,33.6s75.48,43.76,75.48,97.71"/>
  <path class="cls-2" d="M20.78,103.67s6.43-4.45-2.23-12.41c-1.86,3.05-4.43,7.35-2.12,11.47.18.4.88.69.88.69v1.22h-2.18v18.91h7.74v-19.04h-2.09v-.85ZM19.09,102.61c-3.79-1.9-.33-8.61-.33-8.61,1.33,1.32,2.2,4.22,2.2,5.15,0,2.75-1.21,3.46-1.87,3.46"/>
  <path class="cls-2" d="M198.5,105.03c5.9-3.19,1.18-10.23,0-13.19-8.89,8.27-2.51,13.21-2.51,13.21v1.32h-3.03v19.3h7.83v-19.3h-2.3v-1.33ZM197.17,102.73c-4.37-1.58.45-8.15.45-8.15,1.82,1.78,2.52,4.76,2.45,5.35-.44,2.55-2.35,2.8-2.9,2.8"/>
  <path class="cls-2" d="M73.89,83.39v-34.06s13.08-8,33.93,4.6c3.54-2.22,16.43-10.92,36.18-4.94v35.77s-32.32-7.66-33.17,8.01h-4.3s1.9-11.23-32.65-9.37"/>
  <path class="cls-3" d="M80.07,77.94v-26.07s19.08-1.6,26.96,7.68v22.94s-6.3-4.56-26.96-4.56"/>
  <path class="cls-3" d="M137.5,77.94v-26.07s-19.08-1.6-26.92,7.68v22.94s6.26-4.56,26.92-4.56"/>
  <path class="cls-1" d="M46.12,110.11v58.13c0,2.12,6.4,42.96,61.54,48.42,0,0,46.83,1.32,62.77-48.42v-56.56h-10.32v56.56s-10.97,38.97-50.92,38.97c-8.16,0-42.47-.81-53.82-38.97v-58.13h-9.25Z"/>
  <path class="cls-2" d="M60.07,121.56h-2.11v-11.45h12.17v58.13s11.09,24.67,38.14,24.67c4.33,0,24.99,1.08,38.1-26.07v-55.4h11.88v11.38h-1.96v45.41s-11.45,33.53-48.47,34.19c-5.44,0-33.17.58-47.54-34.19,0-22.58-.2-46.68-.2-46.68"/>
  <path class="cls-2" d="M91.34,58.45l-.95,4.42-.25-.49c-.04-.25-.12-.58-.25-1.04,0-.04-.08-.17-.21-.36-.36.36-.75.55-1.16.55-.39,0-.74-.16-1.03-.51-.09-.09-.2-.29-.34-.63-.1-.2-.16-.49-.23-.96-.06-.39-.08-.71-.08-1.01l.44.2c.07.42.09.66.09.72.1.32.15.56.27.65.18.26.34.4.42.48.17.14.41.18.67.16.4-.01.64-.24.73-.6.04-.11.04-.24.02-.36-.02-.12-.06-.25-.16-.28l-.04-.02s-.06.09-.13.14c-.18.2-.34.29-.54.29-.17,0-.31-.04-.43-.14-.12-.1-.18-.24-.18-.38,0-.25.1-.45.3-.58.15-.14.35-.21.62-.21.46,0,.82.24,1.05.64.12.25.14.47.14.68,0,.17,0,.29-.03.43l.16.45.48-2.22h-3.88l-.47-.6h5.32l.49.6h-.83Z"/>
  <path class="cls-2" d="M100.6,61.98l-.94,4.4-.24-.48c-.06-.25-.12-.61-.24-1.04-.03-.05-.09-.2-.23-.39-.36.38-.76.57-1.16.57s-.74-.17-1.01-.49c-.09-.12-.21-.34-.33-.63-.1-.21-.17-.52-.25-.98-.05-.4-.08-.76-.08-1.03l.41.2c.08.43.11.67.11.75.1.31.16.53.24.66.2.23.35.39.44.44.2.12.41.21.67.16.4-.03.66-.21.73-.6,0-.1.03-.23,0-.33,0-.16-.04-.25-.12-.31h-.08s-.05.07-.13.16c-.16.16-.34.26-.53.26-.17,0-.29-.05-.4-.15-.15-.11-.21-.22-.21-.38,0-.25.11-.42.28-.58.16-.12.38-.2.63-.2.49,0,.82.23,1.06.65.1.25.16.45.16.68,0,.13,0,.26-.06.4l.18.47.49-2.2h-3.86l-.5-.62h5.29l.53.62h-.86Z"/>
  <path class="cls-2" d="M101.64,61.75l.02-.15c.03-.38.1-.74.18-1.07l.3.27c-.02.09-.02.14-.02.22s.02.14.05.24c0,.01,0,.05.06.11h.29l.46.63h-.84l-.95,4.44-.46-.64.67-3.12c0-.12.01-.2.01-.2,0-.16-.06-.29-.15-.38-.11-.06-.25-.11-.39-.11h-.14l-.49-.58c.29-.04.49-.04.61-.04.42,0,.66.14.8.39"/>
  <path class="cls-2" d="M90.54,71.25c0-.14-.08-.3-.18-.44-.17-.22-.4-.32-.68-.32l-.71,3.42-.29-.36c-.03-.27-.03-.43-.06-.45-.05-.1-.11-.27-.21-.44-.27-.46-.72-.74-1.31-.79l-.5-.82c.88-.59,1.79-1.03,2.66-1.28l.04-.17h-2.47l-.49-.59h5.08l.49.59h-2.01l-.04.12c.32,0,.61.14.86.44.23.3.34.61.34.92,0,.44-.11.79-.39.99-.18.19-.36.28-.61.28-.14,0-.25-.04-.38-.15-.08-.08-.15-.18-.15-.33,0-.24.13-.44.42-.64.1-.03.18-.04.28-.04.12,0,.23.02.3.06M89.07,70.54c-.38.14-.67.27-.9.39-.06.05-.2.14-.43.25.43.25.75.57.95.96l.38-1.61Z"/>
  <path class="cls-2" d="M100.72,71.74l-.93,4.3-.23-.33s-.05-.13-.09-.23c-.06-.49-.23-.83-.54-1.05-.35-.24-.74-.4-1.14-.42l-.68-1.14c.29.09.49.11.59.11.26,0,.54-.05.88-.17.38-.14.59-.33.65-.51,0-.09,0-.16-.06-.25l-.23.2c-.43.26-.82.39-1.21.39-.15,0-.3-.03-.41-.15-.12-.1-.2-.19-.2-.36,0-.2.07-.35.21-.49.13-.14.29-.2.47-.2.27,0,.39.13.41.34l.13-.06c.08-.02.33-.22.78-.57.29.29.47.47.5.54.13.19.21.38.21.58,0,.5-.35.94-1.03,1.22.32.22.56.46.73.79l.85-3.94.39.26s-.02.12-.04.25c-.03.11-.03.22,0,.24.04.02.11.03.24.07l.51.6h-.79Z"/>
  <path class="cls-2" d="M115.64,67.57c-.06,0-.13-.03-.27-.16-.09-.12-.2-.22-.26-.31-.25.17-.46.25-.66.32-.16.06-.34.11-.47.11-.6,0-1.05-.18-1.32-.51-.27-.32-.41-.81-.41-1.45s.22-1.18.68-1.63c.4-.41.92-.64,1.53-.64.23,0,.47.03.78.16.34.14.52.33.52.53,0,.04-.02.11-.08.18-.04.08-.04.25-.05.48-.05.22-.05.5-.05.85,0,.3.05.55.06.75.05.11.12.34.28.68,0,.05.04.11.09.21v.05c.01.1-.05.2-.09.26-.08.08-.16.1-.28.1M114.85,64.88c0-.11,0-.22.02-.33.01-.15.03-.3.06-.45-.11-.04-.18-.07-.25-.1-.08-.01-.13-.05-.13-.05-.44,0-.78.17-1.08.52-.3.31-.46.68-.46,1.11s.1.72.25.97c.15.19.39.31.67.31s.47-.07.64-.14c.11-.07.23-.15.39-.31-.08-.69-.11-1.19-.11-1.54"/>
  <path class="cls-2" d="M122.54,63.47c-.37,0-.77-.08-1.08-.25-.07.12-.19.21-.32.21-.07,0-.16-.04-.25-.12-.08-.03-.11-.14-.11-.23,0-.09,0-.19.02-.31v-.3c0-.29,0-.69-.02-1.23v-3.38c0-.15.02-.29.11-.4.06-.17.2-.24.35-.24.18,0,.29.12.29.33,0,.03,0,.09,0,.17-.04.06-.04.12-.04.15v.86l-.03.98c.23-.14.44-.25.66-.34.2-.07.39-.1.55-.1.56,0,1.01.19,1.41.62.28.42.46.91.46,1.47,0,.6-.19,1.11-.59,1.51-.34.41-.84.61-1.41.61M122.67,59.98c-.2,0-.4.06-.64.17-.11.07-.32.2-.54.39l-.03.68v.61l.03.63c.12.05.29.12.51.2.18.04.33.06.54.06.37,0,.68-.14.93-.37.21-.28.37-.6.37-1s-.11-.7-.3-.98c-.22-.25-.51-.4-.87-.4"/>
  <path class="cls-2" d="M130.6,60.52c-.54.05-1.01-.09-1.36-.37-.42-.27-.66-.7-.71-1.26-.06-.51.07-1.06.35-1.65.33-.66.71-1.03,1.24-1.07.24-.03.51,0,.83.09.43.13.66.29.67.5.03.1-.01.19-.08.28-.06.07-.12.12-.21.12-.11.02-.17,0-.22-.04-.04-.03-.12-.07-.16-.12-.17-.08-.42-.14-.77-.08-.26.03-.49.26-.74.75-.18.45-.23.84-.2,1.14.01.35.15.61.41.78.25.17.53.2.85.2.19-.02.31-.08.49-.18l.43-.29c.05-.03.12-.09.12-.09.16,0,.22.04.32.09.08.09.13.17.13.25,0,.19-.18.4-.56.6-.32.2-.61.3-.83.35"/>
  <path class="cls-2" d="M116.05,75.92h-1.13c-.13,0-.23-.01-.29-.03-.11-.05-.16-.12-.16-.22,0-.19.16-.29.46-.29l.13.02h.14c0-.12-.03-.25-.03-.41-.04-.17-.04-.32-.04-.41,0-.24.04-.59.08-1.07.01-.49.06-.85.06-1.13-.26.22-.44.31-.49.31-.09,0-.16-.02-.23-.1-.04-.04-.06-.11-.06-.18,0-.09.06-.18.25-.3.1-.09.25-.22.43-.37.16-.17.33-.25.46-.25.16,0,.23.09.23.22,0,.04,0,.1-.03.19-.02.11-.02.17-.02.22v.27c.02.14.02.22.02.29,0,.21-.02.53-.08.96-.05.44-.07.76-.07.95,0,.1,0,.26.02.41.03.16.03.27.03.39h.32c.07,0,.15.02.18.07.05.06.09.13.09.19s-.04.16-.09.19c-.04.07-.11.08-.18.08"/>
  <path class="cls-2" d="M124.63,73.6s-.11,0-.18-.02c-.09-.04-.16-.04-.16-.04h-.92c-.08,0-.17.04-.35.06-.11,0-.23.03-.31.03,0,0-.07,0-.1-.03h-.06c-.16,0-.23-.06-.26-.19-.02-.08-.04-.19-.04-.33,0-.44.1-.81.36-1.07.1-.11.39-.33.86-.68.28-.19.47-.32.56-.43.18-.17.23-.38.23-.63,0-.14-.05-.25-.23-.33-.14-.1-.29-.12-.4-.12-.18,0-.34.02-.49.15l-.42.31c-.07.08-.15.09-.2.09-.2,0-.29-.05-.29-.24,0-.06.04-.14.1-.21.23-.22.43-.37.58-.43.23-.16.46-.23.72-.23.3,0,.59.09.82.24.27.19.4.44.4.73,0,.2,0,.37-.07.53-.06.17-.16.31-.25.44-.14.17-.39.38-.73.57-.35.24-.58.4-.7.51-.23.24-.31.47-.31.81l.58-.08c.43-.01.71-.02.88-.02.14,0,.28.02.41.07.19.07.26.14.26.27,0,.08-.03.14-.07.21-.07.04-.13.06-.21.06"/>
  <path class="cls-2" d="M132.59,70.93c-.29.01-.53-.02-.77-.14-.28-.12-.44-.33-.54-.55-.03-.04-.04-.09-.04-.12-.02-.05.04-.12.08-.17.05-.05.1-.11.2-.11.08,0,.12.06.2.11l.13.18c.07.1.16.15.29.2.11.05.26.06.44.06.2-.01.37-.11.53-.24.15-.13.23-.3.23-.47-.03-.31-.13-.52-.34-.68-.21-.12-.46-.23-.75-.24-.24-.02-.32-.09-.33-.24,0-.13.08-.18.23-.26l.66-.21c.12-.07.21-.11.3-.2.04-.07.1-.18.1-.3-.03-.16-.1-.28-.23-.37-.13-.11-.34-.15-.6-.15-.11,0-.25.05-.37.1l-.3.22c-.06.03-.15.07-.15.07-.08,0-.13-.04-.21-.08-.05-.06-.08-.11-.08-.19-.01-.16.14-.29.42-.45.25-.12.44-.22.63-.22.36-.01.71.08.96.22.27.18.4.47.44.81.02.44-.15.74-.5.89-.06.03-.07.06-.12.06.25.09.45.22.58.4.16.16.22.4.23.66.02.38-.11.71-.36.96-.25.28-.57.44-.94.44"/>
  <path class="cls-2" d="M94.79,103.13c.9,3.09,1.37,4.65,2.26,7.76.19.57.32.92.42,1.09.11.14.27.23.46.26.2.09.49.06.86-.04.09-.03.14-.03.23-.05.03.09.06.15.06.25-2.09.53-3.11.87-5.16,1.67-.05-.09-.09-.15-.09-.24.09-.05.15-.07.25-.11.4-.16.68-.31.83-.48.13-.16.2-.31.2-.52,0-.17-.08-.55-.32-1.14-.67-1.93-1.03-2.88-1.7-4.8-.18-.44-.28-.69-.37-.79-.12-.09-.22-.14-.39-.16-.19-.04-.37,0-.56.07-.29.1-.6.31-.99.65-.08-.1-.15-.12-.25-.21,1.47-1.3,2.27-1.94,3.94-3.12.1-.04.15-.07.29-.1"/>
  <path class="cls-2" d="M100.73,112.24c0-.07,0-.12,0-.2.79-.33,1.44-.72,1.96-1.15.54-.45.96-.94,1.27-1.51.32-.57.58-1.9.58-1.9-.03-.02-.61.35-.83.43-.21.08-.47.14-.74.17-.85.08-1.57-.04-2.24-.48-.66-.44-1.11-1.09-1.29-2.01-.11-.65-.08-1.25.16-1.86.2-.59.64-1.07,1.25-1.48.62-.4,1.27-.64,1.97-.7.73-.09,1.48,0,2.18.29.69.29,1.22.72,1.64,1.34.39.64.58,1.33.6,2.13.02,1.02-.27,2.03-.77,3.02-.53.98-1.29,1.76-2.25,2.45-.99.66-2.12,1.14-3.49,1.45M104.62,106.88c.15-.22,0-1.03-.03-1.46-.07-.85-.24-1.68-.57-2.39-.17-.42-.43-.71-.75-.87-.16-.08-.38-.14-.63-.12-.31.05-.52.19-.7.4-.19.34-.24.91-.14,1.68.2,1.34.53,2.22.96,2.69.29.28.63.41,1.03.39.22-.04.74-.18.84-.32"/>
  <path class="cls-2" d="M108.36,111.52v-.18c.86-.19,1.57-.44,2.18-.76.63-.31,1.13-.7,1.57-1.2.4-.5.96-1.71.96-1.71-.04-.04-.66.18-.92.2-.24.04-.47.04-.73.04-.82-.08-1.53-.38-2.08-.93-.58-.55-.87-1.31-.85-2.22,0-.65.17-1.27.52-1.78.36-.53.89-.95,1.53-1.21.68-.27,1.38-.37,2.08-.29.74.08,1.44.33,2.08.73.6.44,1.06.98,1.33,1.66.27.7.32,1.42.16,2.21-.21,1.01-.68,1.93-1.4,2.78-.7.86-1.62,1.49-2.71,1.95-1.08.46-2.3.7-3.7.71M113.26,107.06c.2-.17.21-.99.26-1.41.13-.85.1-1.7-.05-2.5-.09-.42-.3-.75-.56-.98-.16-.12-.34-.2-.6-.22-.29-.04-.55.06-.77.25-.26.25-.42.8-.47,1.61-.1,1.34.03,2.27.35,2.8.21.36.53.56.93.6.23,0,.79,0,.9-.16"/>
  <path class="cls-2" d="M121.71,113.91c-2.26-.9-3.42-1.24-5.79-1.74.04-.08.04-.12.04-.16,2.28-1.68,3.92-2.64,4.58-3.2.66-.58,1.08-1.19,1.31-1.87.18-.48.13-.93-.19-1.37-.24-.44-.66-.74-1.24-.91-.89-.24-1.73-.07-2.39.54-.14-.05-.2-.09-.3-.14.51-.85,1.18-1.41,1.95-1.66.8-.27,1.62-.27,2.53.03.64.17,1.18.5,1.63.88.41.4.7.87.84,1.33.13.5.13.91,0,1.24-.24.55-.72,1.11-1.36,1.58-.88.63-2.51,1.35-4.68,2.41.89.22,1.33.38,2.23.71.54.17.9.27,1.07.32.18.01.34,0,.49-.08.15-.05.36-.18.67-.44.09.06.14.07.27.12-.66.96-1,1.45-1.66,2.41"/>
  <path class="cls-2" d="M141.47,149.83c0,18.51-15.12,33.53-33.81,33.53s-33.81-15.01-33.81-33.53,15.15-33.52,33.81-33.52,33.81,14.99,33.81,33.52"/>
  <path class="cls-2" d="M107.66,184c-18.98,0-34.44-15.33-34.44-34.17s15.45-34.16,34.44-34.16,34.47,15.34,34.47,34.16-15.48,34.17-34.47,34.17M107.66,116.96c-18.29,0-33.13,14.74-33.13,32.87s14.84,32.89,33.13,32.89,33.17-14.75,33.17-32.89-14.86-32.87-33.17-32.87"/>
  <polygon class="cls-3" points="139.43 136.57 75.92 136.57 76.51 135.31 138.85 135.31 139.43 136.57"/>
  <path class="cls-1" d="M141.47,149.83c0,18.51-15.12,33.53-33.81,33.53s-33.81-15.01-33.81-33.53"/>
  <path class="cls-3" d="M80.8,151.39h-1.28c0-10.99,3.41-21.54,9.91-30.45l1.03.76c-6.32,8.68-9.66,18.97-9.66,29.69"/>
  <path class="cls-3" d="M91.15,151.39h-1.26c0-13.13,4.93-25.68,13.95-35.34l.93.87c-8.78,9.42-13.62,21.65-13.62,34.47"/>
  <path class="cls-3" d="M80.8,151.39h-1.28c0-10.99,3.41-21.54,9.91-30.45l1.03.76c-6.32,8.68-9.66,18.97-9.66,29.69"/>
  <path class="cls-3" d="M135.9,151.39h-1.3c0-10.73-3.34-21.01-9.66-29.69l1.03-.76c6.5,8.91,9.93,19.46,9.93,30.45"/>
  <path class="cls-3" d="M125.53,151.39h-1.29c0-12.81-4.85-25.05-13.61-34.47l.94-.87c8.98,9.66,13.96,22.21,13.96,35.34"/>
  <path class="cls-3" d="M135.9,151.39h-1.3c0-10.73-3.34-21.01-9.66-29.69l1.03-.76c6.5,8.91,9.93,19.46,9.93,30.45"/>
  <path class="cls-3" d="M107.66,126.93c-6.39,0-12.66-1.77-18.07-5.08l-.9-.53.9-.56c5.41-3.32,11.68-5.08,18.07-5.08s12.68,1.76,18.06,5.08l.91.56-.91.53c-5.38,3.32-11.63,5.08-18.06,5.08M91.21,121.32c4.98,2.85,10.66,4.34,16.45,4.34s11.49-1.49,16.5-4.34c-5.01-2.88-10.69-4.35-16.5-4.35s-11.47,1.48-16.45,4.35"/>
  <rect class="cls-2" x="78.04" y="165.36" width="59.24" height="1.28"/>
  <rect class="cls-3" x="107.03" y="116.32" width="1.29" height="67.05"/>
  <path class="cls-2" d="M85.78,176.1c-3.91-7.19-6.26-17.01-6.26-26.27h1.28c0,9.07,2.83,20.23,6.66,27.26l-1.68-1Z"/>
  <path class="cls-2" d="M100.73,183.13c-6.78-8.77-10.84-21.21-10.84-33.29h1.26c0,11.82,3.99,23.97,10.64,32.53l-1.06.76Z"/>
  <path class="cls-2" d="M129.59,176.1l-1.77.66c3.66-4.59,6.77-17.87,6.77-26.93h1.27c0,9.26-2.32,19.08-6.27,26.27"/>
  <path class="cls-2" d="M114.66,183.13l-1.04-.78c6.66-8.56,10.62-20.73,10.62-32.52h1.29c0,12.05-4.07,24.52-10.87,33.29"/>
  <polygon class="cls-3" points="99.71 144.73 99.71 127.14 103.17 127.14 110.44 138.91 110.44 127.14 113.77 127.14 113.77 144.73 110.17 144.73 103.02 133.27 103.02 144.73 99.71 144.73"/>
  <path class="cls-2" d="M99.42,165.93l3.5-.34c.21,1.17.63,2.03,1.28,2.56.63.56,1.49.81,2.59.81s2-.23,2.6-.71c.58-.48.9-1.05.9-1.73,0-.38-.13-.75-.4-1.05-.23-.27-.66-.51-1.28-.76-.42-.13-1.39-.4-2.86-.77-1.92-.47-3.29-1.05-4.04-1.74-1.11-.97-1.64-2.16-1.64-3.51,0-.94.26-1.75.77-2.55.51-.78,1.27-1.37,2.2-1.78.97-.39,2.14-.59,3.5-.59,2.24,0,3.92.46,5.03,1.44,1.13.97,1.71,2.24,1.77,3.87l-3.57.16c-.16-.91-.49-1.56-.99-1.95-.51-.4-1.27-.59-2.27-.59s-1.87.2-2.44.62c-.37.26-.57.64-.57,1.11,0,.41.18.77.53,1.06.47.36,1.57.77,3.31,1.18,1.71.4,3.01.83,3.86,1.26.83.43,1.51,1.03,1.96,1.76.47.77.71,1.71.71,2.81,0,1.02-.28,1.97-.85,2.86-.54.88-1.37,1.52-2.4,1.95-1.01.43-2.31.62-3.85.62-2.25,0-3.94-.51-5.16-1.51-1.21-1.05-1.94-2.54-2.17-4.52"/>
  <path class="cls-2" d="M107.66,184c-6.27,0-12.4-1.68-17.77-4.89l-.89-.54.89-.54c5.37-3.21,11.5-4.93,17.77-4.93s12.44,1.71,17.78,4.93l.91.54-.91.54c-5.35,3.2-11.52,4.89-17.78,4.89M91.51,178.58c4.94,2.73,10.48,4.15,16.15,4.15s11.24-1.42,16.17-4.15c-4.93-2.73-10.5-4.2-16.17-4.2s-11.21,1.47-16.15,4.2"/>
  <rect class="cls-2" x="107.03" y="149.83" width="1.29" height="33.53"/>
</svg>