<?xml version="1.0" encoding="utf-8"?>
<!-- Generator: Adobe Illustrator 27.2.0, SVG Export Plug-In . SVG Version: 6.00 Build 0)  -->
<svg version="1.1" id="Layer_1" xmlns="http://www.w3.org/2000/svg" xmlns:xlink="http://www.w3.org/1999/xlink" x="0px" y="0px"
	 viewBox="0 0 512 512" style="enable-background:new 0 0 512 512;" xml:space="preserve">
<style type="text/css">
	.st0{fill:#09A3D5;}
</style>
<g>
	<path class="st0" d="M64.02,239.21c-11.74-1.39-12.61-17.14-27.66-15.74c-7.31,0-14.09,3.04-14.09,9.74
		c0,10.09,15.57,11.05,24.97,13.57c16.01,4.87,31.49,8.18,31.49,25.57c0,22.09-17.31,29.75-40.19,29.75
		C19.4,302.1,0,295.32,0,277.75c0-4.87,4.7-8.7,9.22-8.7c5.74,0,7.74,2.44,9.74,6.44c4.44,7.83,9.39,12,21.75,12
		c7.83,0,15.83-2.96,15.83-9.74c0-9.66-9.83-11.74-20.01-14.09C18.53,258.61,3.04,256,1.22,235.99c-1.91-34.1,69.15-35.4,73.24-5.48
		C74.37,235.91,69.33,239.21,64.02,239.21z M148.57,209.29c24.97,0,39.14,20.88,39.14,46.62c0,25.83-13.74,46.62-39.14,46.62
		c-14.09,0-22.88-6-29.23-15.22v34.1c0,10.26-3.31,15.22-10.79,15.22c-9.13,0-10.79-5.83-10.79-15.22v-99.16
		c0-8.09,3.39-13.05,10.79-13.05c6.96,0,10.79,5.48,10.79,13.05v2.78C126.39,216.16,134.48,209.29,148.57,209.29L148.57,209.29z
		 M142.66,284.79c14.61,0,21.14-13.48,21.14-29.23c0-15.4-6.61-29.23-21.14-29.23c-15.22,0-22.27,12.53-22.27,29.23
		C120.39,271.83,127.52,284.79,142.66,284.79z M204.68,233.64c0-17.92,20.62-24.36,40.62-24.36c28.1,0,39.67,8.18,39.67,35.32v26.1
		c0,6.18,3.83,18.53,3.83,22.27c0,5.65-5.22,9.22-10.79,9.22c-6.18,0-10.79-7.31-14.09-12.53c-9.13,7.31-18.79,12.53-33.58,12.53
		c-16.35,0-29.23-9.66-29.23-25.57c0-14.09,10.09-22.18,22.27-24.97l39.14-9.31c0-12-4.26-17.31-16.88-17.31
		c-11.13,0-16.79,3.04-21.14,9.74c-3.48,5.05-3.04,8.09-9.74,8.09C209.38,242.78,204.68,239.12,204.68,233.64z M238.08,287.49
		c17.14,0,24.36-9.05,24.36-27.05v-3.83c-4.61,1.57-23.23,6.18-28.27,6.96c-5.39,1.04-10.79,5.05-10.79,11.4
		C223.55,281.92,230.69,287.49,238.08,287.49z M363.95,175.28c24.18,0,50.36,14.44,50.36,37.4c0,5.92-4.44,10.79-10.26,10.79
		c-7.92,0-9.05-4.26-12.53-10.26c-5.83-10.7-12.7-17.83-27.66-17.83c-23.14-0.17-33.49,19.66-33.49,44.36
		c0,24.88,8.61,42.8,32.53,42.8c15.92,0,24.7-9.22,29.23-21.14c1.83-5.48,5.13-10.79,12-10.79c5.39,0,10.79,5.48,10.79,11.4
		c0,24.36-24.88,41.23-50.45,41.23c-28.01,0-43.84-11.83-52.54-31.49c-4.26-9.39-6.96-19.14-6.96-32.53
		C304.8,201.46,326.81,175.28,363.95,175.28L363.95,175.28z M502.26,209.29c6.18,0,9.74,4,9.74,10.26c0,2.52-2,7.57-2.78,10.26
		l-29.75,78.2c-6.61,16.96-11.57,28.71-34.1,28.71c-10.7,0-20.01-0.96-20.01-10.26c0-5.39,4.09-8.09,9.74-8.09
		c1.04,0,2.78,0.52,3.83,0.52c1.65,0,2.78,0.52,3.83,0.52c11.31,0,12.87-11.57,16.88-19.57l-28.71-71.07
		c-1.65-3.83-2.78-6.44-2.78-8.7c0-6.26,4.87-10.79,11.4-10.79c7.31,0,10.18,5.74,12,12l18.96,56.37l18.96-52.1
		C492.34,217.47,492.6,209.29,502.26,209.29L502.26,209.29z"/>
</g>
</svg>
